ffmpeg version 4.4.2-0ubuntu0.22.04.1 Copyright (c) 2000-2021 the FFmpeg developers
  built with gcc 11 (Ubuntu 11.2.0-19ubuntu1)
  configuration: --prefix=/usr --extra-version=0ubuntu0.22.04.1 --toolchain=hardened --libdir=/usr/lib/x86_64-linux-gnu --incdir=/usr/include/x86_64-linux-gnu --arch=amd64 --enable-gpl --disable-stripping --enable-gnutls --enable-ladspa --enable-libaom --enable-libass --enable-libbluray --enable-libbs2b --enable-libcaca --enable-libcdio --enable-libcodec2 --enable-libdav1d --enable-libflite --enable-libfontconfig --enable-libfreetype --enable-libfribidi --enable-libgme --enable-libgsm --enable-libjack --enable-libmp3lame --enable-libmysofa --enable-libopenjpeg --enable-libopenmpt --enable-libopus --enable-libpulse --enable-librabbitmq --enable-librubberband --enable-libshine --enable-libsnappy --enable-libsoxr --enable-libspeex --enable-libsrt --enable-libssh --enable-libtheora --enable-libtwolame --enable-libvidstab --enable-libvorbis --enable-libvpx --enable-libwebp --enable-libx265 --enable-libxml2 --enable-libxvid --enable-libzimg --enable-libzmq --enable-libzvbi --enable-lv2 --enable-omx --enable-openal --enable-opencl --enable-opengl --enable-sdl2 --enable-pocketsphinx --enable-librsvg --enable-libmfx --enable-libdc1394 --enable-libdrm --enable-libiec61883 --enable-chromaprint --enable-frei0r --enable-libx264 --enable-shared
  WARNING: library configuration mismatch
  avcodec     configuration: --prefix=/usr --extra-version=0ubuntu0.22.04.1 --toolchain=hardened --libdir=/usr/lib/x86_64-linux-gnu --incdir=/usr/include/x86_64-linux-gnu --arch=amd64 --enable-gpl --disable-stripping --enable-gnutls --enable-ladspa --enable-libaom --enable-libass --enable-libbluray --enable-libbs2b --enable-libcaca --enable-libcdio --enable-libcodec2 --enable-libdav1d --enable-libflite --enable-libfontconfig --enable-libfreetype --enable-libfribidi --enable-libgme --enable-libgsm --enable-libjack --enable-libmp3lame --enable-libmysofa --enable-libopenjpeg --enable-libopenmpt --enable-libopus --enable-libpulse --enable-librabbitmq --enable-librubberband --enable-libshine --enable-libsnappy --enable-libsoxr --enable-libspeex --enable-libsrt --enable-libssh --enable-libtheora --enable-libtwolame --enable-libvidstab --enable-libvorbis --enable-libvpx --enable-libwebp --enable-libx265 --enable-libxml2 --enable-libxvid --enable-libzimg --enable-libzmq --enable-libzvbi --enable-lv2 --enable-omx --enable-openal --enable-opencl --enable-opengl --enable-sdl2 --enable-pocketsphinx --enable-librsvg --enable-libmfx --enable-libdc1394 --enable-libdrm --enable-libiec61883 --enable-chromaprint --enable-frei0r --enable-libx264 --enable-shared --enable-version3 --disable-doc --disable-programs --enable-libaribb24 --enable-libopencore_amrnb --enable-libopencore_amrwb --enable-libtesseract --enable-libvo_amrwbenc --enable-libsmbclient
  libavutil      56. 70.100 / 56. 70.100
  libavcodec     58.134.100 / 58.134.100
  libavformat    58. 76.100 / 58. 76.100
  libavdevice    58. 13.100 / 58. 13.100
  libavfilter     7.110.100 /  7.110.100
  libswscale      5.  9.100 /  5.  9.100
  libswresample   3.  9.100 /  3.  9.100
  libpostproc    55.  9.100 / 55.  9.100
Input #0, avi, from './tmp/sync_Mako-0_2022-12-21T16:24:53.969252200Z.avi':
  Metadata:
    software        : Lavf58.76.100
  Duration: 00:00:09.13, start: 0.000000, bitrate: 6515 kb/s
  Stream #0:0: Video: mjpeg (Baseline) (MJPG / 0x47504A4D), yuvj420p(pc, bt470bg/unknown/unknown), 968x608, 6555 kb/s, 15 fps, 15 tbr, 15 tbn, 15 tbc
Guessed Channel Layout for Input Stream #1.0 : stereo
Input #1, wav, from './tmp/sync_mic_2022-12-21T16:24:54.464210938Z.wav':
  Duration: 00:00:08.01, bitrate: 1536 kb/s
  Stream #1:0: Audio: pcm_s16le ([1][0][0][0] / 0x0001), 48000 Hz, stereo, s16, 1536 kb/s
Stream mapping:
  Stream #0:0 -> #0:0 (mjpeg (native) -> h264 (libx264))
  Stream #1:0 -> #0:1 (pcm_s16le (native) -> aac (native))
Press [q] to stop, [?] for help
[libx264 @ 0x562ba0d8ccc0] using cpu capabilities: MMX2 SSE2Fast SSSE3 SSE4.2 AVX FMA3 BMI2 AVX2
[libx264 @ 0x562ba0d8ccc0] profile High, level 3.1, 4:2:0, 8-bit
[libx264 @ 0x562ba0d8ccc0] 264 - core 163 r3060 5db6aa6 - H.264/MPEG-4 AVC codec - Copyleft 2003-2021 - http://www.videolan.org/x264.html - options: cabac=1 ref=3 deblock=1:0:0 analyse=0x3:0x113 me=hex subme=7 psy=1 psy_rd=1.00:0.00 mixed_ref=1 me_range=16 chroma_me=1 trellis=1 8x8dct=1 cqm=0 deadzone=21,11 fast_pskip=1 chroma_qp_offset=-2 threads=18 lookahead_threads=3 sliced_threads=0 nr=0 decimate=1 interlaced=0 bluray_compat=0 constrained_intra=0 bframes=3 b_pyramid=2 b_adapt=1 b_bias=0 direct=1 weightb=1 open_gop=0 weightp=2 keyint=250 keyint_min=15 scenecut=40 intra_refresh=0 rc_lookahead=40 rc=crf mbtree=1 crf=23.0 qcomp=0.60 qpmin=0 qpmax=69 qpstep=4 ip_ratio=1.40 aq=1:1.00
Output #0, mp4, to './Mako-0.mp4':
  Metadata:
    software        : Lavf58.76.100
    creation_time   : 2022-12-21T16:24:54.464210033Z
    encoder         : Lavf58.76.100
  Stream #0:0: Video: h264 (avc1 / 0x31637661), yuvj420p(pc, bt470bg/unknown/unknown, progressive), 968x608, q=2-31, 15 fps, 15360 tbn
    Metadata:
      encoder         : Lavc58.134.100 libx264
    Side data:
      cpb: bitrate max/min/avg: 0/0/0 buffer size: 0 vbv_delay: N/A
  Stream #0:1: Audio: aac (LC) (mp4a / 0x6134706D), 48000 Hz, stereo, fltp, 128 kb/s
    Metadata:
      encoder         : Lavc58.134.100 aac
frame=    1 fps=0.0 q=0.0 size=       0kB time=00:00:00.00 bitrate=N/A speed=   0x    frame=  130 fps=0.0 q=-1.0 Lsize=     687kB time=00:00:08.46 bitrate= 664.5kbits/s speed=  16x    
video:555kB audio:126kB subtitle:0kB other streams:0kB global headers:0kB muxing overhead: 0.841516%
[libx264 @ 0x562ba0d8ccc0] frame I:1     Avg QP:19.03  size: 42729
[libx264 @ 0x562ba0d8ccc0] frame P:33    Avg QP:20.26  size: 10007
[libx264 @ 0x562ba0d8ccc0] frame B:96    Avg QP:21.44  size:  2033
[libx264 @ 0x562ba0d8ccc0] consecutive B-frames:  1.5%  0.0%  0.0% 98.5%
[libx264 @ 0x562ba0d8ccc0] mb I  I16..4: 17.7% 78.9%  3.5%
[libx264 @ 0x562ba0d8ccc0] mb P  I16..4:  1.5%  8.2%  0.2%  P16..4: 26.1%  8.1%  8.1%  0.0%  0.0%    skip:47.8%
[libx264 @ 0x562ba0d8ccc0] mb B  I16..4:  0.3%  1.4%  0.0%  B16..8: 17.8%  3.2%  0.5%  direct: 3.1%  skip:73.6%  L0:51.7% L1:41.7% BI: 6.6%
[libx264 @ 0x562ba0d8ccc0] 8x8 transform intra:81.9% inter:75.2%
[libx264 @ 0x562ba0d8ccc0] coded y,uvDC,uvAC intra: 39.6% 39.9% 15.0% inter: 6.6% 12.4% 2.0%
[libx264 @ 0x562ba0d8ccc0] i16 v,h,dc,p: 74% 13%  9%  4%
[libx264 @ 0x562ba0d8ccc0] i8 v,h,dc,ddl,ddr,vr,hd,vl,hu: 31% 16% 41%  2%  2%  2%  2%  2%  3%
[libx264 @ 0x562ba0d8ccc0] i4 v,h,dc,ddl,ddr,vr,hd,vl,hu: 20% 30%  9%  6%  6%  7%  7%  7%  9%
[libx264 @ 0x562ba0d8ccc0] i8c dc,h,v,p: 54% 23% 20%  3%
[libx264 @ 0x562ba0d8ccc0] Weighted P-Frames: Y:0.0% UV:0.0%
[libx264 @ 0x562ba0d8ccc0] ref P L0: 41.3%  7.2% 37.4% 14.1%
[libx264 @ 0x562ba0d8ccc0] ref B L0: 62.5% 28.5%  9.0%
[libx264 @ 0x562ba0d8ccc0] ref B L1: 85.2% 14.8%
[libx264 @ 0x562ba0d8ccc0] kb/s:524.43
[aac @ 0x562ba0d5d4c0] Qavg: 324.139
ffmpeg version 4.4.2-0ubuntu0.22.04.1 Copyright (c) 2000-2021 the FFmpeg developers
  built with gcc 11 (Ubuntu 11.2.0-19ubuntu1)
  configuration: --prefix=/usr --extra-version=0ubuntu0.22.04.1 --toolchain=hardened --libdir=/usr/lib/x86_64-linux-gnu --incdir=/usr/include/x86_64-linux-gnu --arch=amd64 --enable-gpl --disable-stripping --enable-gnutls --enable-ladspa --enable-libaom --enable-libass --enable-libbluray --enable-libbs2b --enable-libcaca --enable-libcdio --enable-libcodec2 --enable-libdav1d --enable-libflite --enable-libfontconfig --enable-libfreetype --enable-libfribidi --enable-libgme --enable-libgsm --enable-libjack --enable-libmp3lame --enable-libmysofa --enable-libopenjpeg --enable-libopenmpt --enable-libopus --enable-libpulse --enable-librabbitmq --enable-librubberband --enable-libshine --enable-libsnappy --enable-libsoxr --enable-libspeex --enable-libsrt --enable-libssh --enable-libtheora --enable-libtwolame --enable-libvidstab --enable-libvorbis --enable-libvpx --enable-libwebp --enable-libx265 --enable-libxml2 --enable-libxvid --enable-libzimg --enable-libzmq --enable-libzvbi --enable-lv2 --enable-omx --enable-openal --enable-opencl --enable-opengl --enable-sdl2 --enable-pocketsphinx --enable-librsvg --enable-libmfx --enable-libdc1394 --enable-libdrm --enable-libiec61883 --enable-chromaprint --enable-frei0r --enable-libx264 --enable-shared
  WARNING: library configuration mismatch
  avcodec     configuration: --prefix=/usr --extra-version=0ubuntu0.22.04.1 --toolchain=hardened --libdir=/usr/lib/x86_64-linux-gnu --incdir=/usr/include/x86_64-linux-gnu --arch=amd64 --enable-gpl --disable-stripping --enable-gnutls --enable-ladspa --enable-libaom --enable-libass --enable-libbluray --enable-libbs2b --enable-libcaca --enable-libcdio --enable-libcodec2 --enable-libdav1d --enable-libflite --enable-libfontconfig --enable-libfreetype --enable-libfribidi --enable-libgme --enable-libgsm --enable-libjack --enable-libmp3lame --enable-libmysofa --enable-libopenjpeg --enable-libopenmpt --enable-libopus --enable-libpulse --enable-librabbitmq --enable-librubberband --enable-libshine --enable-libsnappy --enable-libsoxr --enable-libspeex --enable-libsrt --enable-libssh --enable-libtheora --enable-libtwolame --enable-libvidstab --enable-libvorbis --enable-libvpx --enable-libwebp --enable-libx265 --enable-libxml2 --enable-libxvid --enable-libzimg --enable-libzmq --enable-libzvbi --enable-lv2 --enable-omx --enable-openal --enable-opencl --enable-opengl --enable-sdl2 --enable-pocketsphinx --enable-librsvg --enable-libmfx --enable-libdc1394 --enable-libdrm --enable-libiec61883 --enable-chromaprint --enable-frei0r --enable-libx264 --enable-shared --enable-version3 --disable-doc --disable-programs --enable-libaribb24 --enable-libopencore_amrnb --enable-libopencore_amrwb --enable-libtesseract --enable-libvo_amrwbenc --enable-libsmbclient
  libavutil      56. 70.100 / 56. 70.100
  libavcodec     58.134.100 / 58.134.100
  libavformat    58. 76.100 / 58. 76.100
  libavdevice    58. 13.100 / 58. 13.100
  libavfilter     7.110.100 /  7.110.100
  libswscale      5.  9.100 /  5.  9.100
  libswresample   3.  9.100 /  3.  9.100
  libpostproc    55.  9.100 / 55.  9.100
Input #0, avi, from './tmp/sync_Manta-1_2022-12-21T16:24:54.109912900Z.avi':
  Metadata:
    software        : Lavf58.76.100
  Duration: 00:00:09.00, start: 0.000000, bitrate: 79311 kb/s
  Stream #0:0: Video: mjpeg (Baseline) (MJPG / 0x47504A4D), yuvj420p(pc, bt470bg/unknown/unknown), 1692x1354, 79885 kb/s, 15 fps, 15 tbr, 15 tbn, 15 tbc
Guessed Channel Layout for Input Stream #1.0 : stereo
Input #1, wav, from './tmp/sync_mic_2022-12-21T16:24:54.464210938Z.wav':
  Duration: 00:00:08.01, bitrate: 1536 kb/s
  Stream #1:0: Audio: pcm_s16le ([1][0][0][0] / 0x0001), 48000 Hz, stereo, s16, 1536 kb/s
Stream mapping:
  Stream #0:0 -> #0:0 (mjpeg (native) -> h264 (libx264))
  Stream #1:0 -> #0:1 (pcm_s16le (native) -> aac (native))
Press [q] to stop, [?] for help
[libx264 @ 0x56417183b380] using cpu capabilities: MMX2 SSE2Fast SSSE3 SSE4.2 AVX FMA3 BMI2 AVX2
[libx264 @ 0x56417183b380] profile High, level 5.0, 4:2:0, 8-bit
[libx264 @ 0x56417183b380] 264 - core 163 r3060 5db6aa6 - H.264/MPEG-4 AVC codec - Copyleft 2003-2021 - http://www.videolan.org/x264.html - options: cabac=1 ref=3 deblock=1:0:0 analyse=0x3:0x113 me=hex subme=7 psy=1 psy_rd=1.00:0.00 mixed_ref=1 me_range=16 chroma_me=1 trellis=1 8x8dct=1 cqm=0 deadzone=21,11 fast_pskip=1 chroma_qp_offset=-2 threads=18 lookahead_threads=3 sliced_threads=0 nr=0 decimate=1 interlaced=0 bluray_compat=0 constrained_intra=0 bframes=3 b_pyramid=2 b_adapt=1 b_bias=0 direct=1 weightb=1 open_gop=0 weightp=2 keyint=250 keyint_min=15 scenecut=40 intra_refresh=0 rc_lookahead=40 rc=crf mbtree=1 crf=23.0 qcomp=0.60 qpmin=0 qpmax=69 qpstep=4 ip_ratio=1.40 aq=1:1.00
Output #0, mp4, to './Manta-1.mp4':
  Metadata:
    software        : Lavf58.76.100
    creation_time   : 2022-12-21T16:24:54.464210033Z
    encoder         : Lavf58.76.100
  Stream #0:0: Video: h264 (avc1 / 0x31637661), yuvj420p(pc, bt470bg/unknown/unknown, progressive), 1692x1354, q=2-31, 15 fps, 15360 tbn
    Metadata:
      encoder         : Lavc58.134.100 libx264
    Side data:
      cpb: bitrate max/min/avg: 0/0/0 buffer size: 0 vbv_delay: N/A
  Stream #0:1: Audio: aac (LC) (mp4a / 0x6134706D), 48000 Hz, stereo, fltp, 128 kb/s
    Metadata:
      encoder         : Lavc58.134.100 aac
frame=    1 fps=0.0 q=0.0 size=       0kB time=00:00:00.00 bitrate=N/A speed=   0x    frame=   45 fps=0.0 q=0.0 size=       0kB time=00:00:00.00 bitrate=N/A speed=   0x    frame=   65 fps= 55 q=27.0 size=     768kB time=00:00:00.00 bitrate=96797538.5kbits/s speed=5.52e-05x    frame=   72 fps= 42 q=27.0 size=    3072kB time=00:00:00.46 bitrate=53920.0kbits/s speed=0.272x    frame=   83 fps= 37 q=27.0 size=    6912kB time=00:00:01.20 bitrate=47183.7kbits/s speed=0.538x    frame=   95 fps= 34 q=27.0 size=   11264kB time=00:00:02.00 bitrate=46136.0kbits/s speed=0.724x    frame=  105 fps= 31 q=27.0 size=   14592kB time=00:00:02.66 bitrate=44825.7kbits/s speed=0.775x    frame=  121 fps= 30 q=27.0 size=   19968kB time=00:00:03.73 bitrate=43814.8kbits/s speed=0.938x    frame=  130 fps= 20 q=-1.0 Lsize=   45431kB time=00:00:08.46 bitrate=43956.4kbits/s speed=1.28x    
video:45299kB audio:126kB subtitle:0kB other streams:0kB global headers:0kB muxing overhead: 0.012585%
[libx264 @ 0x56417183b380] frame I:3     Avg QP:24.62  size:525703
[libx264 @ 0x56417183b380] frame P:36    Avg QP:26.75  size:405023
[libx264 @ 0x56417183b380] frame B:91    Avg QP:27.49  size:332173
[libx264 @ 0x56417183b380] consecutive B-frames:  5.4%  1.5%  6.9% 86.2%
[libx264 @ 0x56417183b380] mb I  I16..4:  0.8% 98.6%  0.7%
[libx264 @ 0x56417183b380] mb P  I16..4:  0.2% 71.0%  0.2%  P16..4:  8.4% 10.9%  8.1%  0.0%  0.0%    skip: 1.3%
[libx264 @ 0x56417183b380] mb B  I16..4:  0.1% 42.8%  0.1%  B16..8: 16.6% 11.1%  5.2%  direct:20.6%  skip: 3.5%  L0:26.8% L1:17.4% BI:55.8%
[libx264 @ 0x56417183b380] 8x8 transform intra:99.5% inter:70.4%
[libx264 @ 0x56417183b380] coded y,uvDC,uvAC intra: 97.9% 98.4% 97.2% inter: 86.6% 87.0% 69.2%
[libx264 @ 0x56417183b380] i16 v,h,dc,p: 45% 35% 14%  6%
[libx264 @ 0x56417183b380] i8 v,h,dc,ddl,ddr,vr,hd,vl,hu:  8% 11% 53%  4%  3%  3%  4%  5%  8%
[libx264 @ 0x56417183b380] i4 v,h,dc,ddl,ddr,vr,hd,vl,hu: 18% 30% 13%  6%  5%  6%  6%  6%  9%
[libx264 @ 0x56417183b380] i8c dc,h,v,p: 81%  6%  6%  7%
[libx264 @ 0x56417183b380] Weighted P-Frames: Y:2.8% UV:0.0%
[libx264 @ 0x56417183b380] ref P L0: 29.4%  7.5% 42.9% 19.7%  0.6%
[libx264 @ 0x56417183b380] ref B L0: 67.3% 25.9%  6.8%
[libx264 @ 0x56417183b380] ref B L1: 89.7% 10.3%
[libx264 @ 0x56417183b380] kb/s:42817.57
[aac @ 0x564171837c40] Qavg: 324.139
